<svg width="73" height="74" viewBox="0 0 73 74" fill="none" xmlns="http://www.w3.org/2000/svg">
<mask id="path-1-inside-1_133_114" fill="white">
<path fill-rule="evenodd" clip-rule="evenodd" d="M5.95693 4.26475C2.45208 7.7696 2.45208 13.4521 5.95693 16.9569L23.2356 34.2356C23.5701 34.5701 24.1126 34.5701 24.4471 34.2356L24.6385 34.0442C24.7932 34.0104 24.9404 33.9334 25.0607 33.8131L42.3394 16.5344C45.8442 13.0296 45.8442 7.34707 42.3394 3.84222C37.6662 -0.830918 30.0896 -0.830918 25.4164 3.84222L23.9369 5.32179L22.8798 4.26475C18.2067 -0.408378 10.6301 -0.408378 5.95693 4.26475Z"/>
</mask>
<path fill-rule="evenodd" clip-rule="evenodd" d="M5.95693 4.26475C2.45208 7.7696 2.45208 13.4521 5.95693 16.9569L23.2356 34.2356C23.5701 34.5701 24.1126 34.5701 24.4471 34.2356L24.6385 34.0442C24.7932 34.0104 24.9404 33.9334 25.0607 33.8131L42.3394 16.5344C45.8442 13.0296 45.8442 7.34707 42.3394 3.84222C37.6662 -0.830918 30.0896 -0.830918 25.4164 3.84222L23.9369 5.32179L22.8798 4.26475C18.2067 -0.408378 10.6301 -0.408378 5.95693 4.26475Z" fill="white"/>
<path d="M24.4471 34.2356L25.8613 35.6498L24.4471 34.2356ZM24.6385 34.0442L24.2118 32.0903L23.6389 32.2154L23.2243 32.63L24.6385 34.0442ZM25.0607 33.8131L23.6465 32.3989L23.6465 32.3989L25.0607 33.8131ZM42.3394 16.5344L43.7536 17.9486L42.3394 16.5344ZM25.4164 3.84222L24.0022 2.428L25.4164 3.84222ZM23.9369 5.32179L22.5227 6.73601L23.9369 8.15022L25.3511 6.73601L23.9369 5.32179ZM7.37115 15.5427C4.64735 12.8189 4.64734 8.40276 7.37114 5.67897L4.54271 2.85054C0.256816 7.13644 0.256824 14.0853 4.54272 18.3711L7.37115 15.5427ZM24.6498 32.8214L7.37115 15.5427L4.54272 18.3711L21.8214 35.6498L24.6498 32.8214ZM23.0329 32.8214C23.4794 32.3749 24.2033 32.3749 24.6498 32.8214L21.8214 35.6498C22.937 36.7654 24.7457 36.7654 25.8613 35.6498L23.0329 32.8214ZM23.2243 32.63L23.0329 32.8214L25.8613 35.6498L26.0527 35.4584L23.2243 32.63ZM23.6465 32.3989C23.8049 32.2405 24.0037 32.1357 24.2118 32.0903L25.0652 35.9982C25.5827 35.8852 26.0759 35.6263 26.4749 35.2273L23.6465 32.3989ZM40.9252 15.1202L23.6465 32.3989L26.4749 35.2273L43.7536 17.9486L40.9252 15.1202ZM40.9252 5.25643C43.649 7.98023 43.649 12.3964 40.9252 15.1202L43.7536 17.9486C48.0395 13.6627 48.0395 6.7139 43.7536 2.428L40.9252 5.25643ZM26.8307 5.25643C30.7227 1.36434 37.0331 1.36434 40.9252 5.25643L43.7536 2.428C38.2994 -3.02618 29.4564 -3.02618 24.0022 2.428L26.8307 5.25643ZM25.3511 6.73601L26.8307 5.25643L24.0022 2.428L22.5227 3.90758L25.3511 6.73601ZM21.4656 5.67897L22.5227 6.73601L25.3511 3.90758L24.294 2.85054L21.4656 5.67897ZM7.37114 5.67897C11.2632 1.78688 17.5735 1.78688 21.4656 5.67897L24.294 2.85054C18.8399 -2.60364 9.99689 -2.60364 4.54271 2.85054L7.37114 5.67897Z" fill="white" mask="url(#path-1-inside-1_133_114)"/>
</svg>
