<svg width="108" height="107" viewBox="0 0 108 107" fill="none" xmlns="http://www.w3.org/2000/svg">
<path d="M41.8974 87.3361C35.3113 90.838 27.1333 88.3378 23.6314 81.7517C21.005 76.8121 22.8802 70.6787 27.8198 68.0522L66.9179 47.2634L78.0142 68.1325L41.8974 87.3361Z" fill="url(#paint0_linear_138_562)"/>
<path d="M88.1672 56.0843C91.0764 57.6803 91.2131 61.7729 88.4038 63.1689L75.8107 69.4265C73.1956 70.726 69.942 68.6837 69.8417 65.6796L69.3937 52.2676C69.2933 49.2636 72.4179 47.4443 75.1261 48.93L88.1672 56.0843Z" fill="url(#paint1_linear_138_562)"/>
<path d="M28.8455 50.166C22.6696 46.9861 19.8367 39.2135 22.5179 32.8053C24.6246 27.7704 30.2661 25.7142 35.1186 28.2127L77.3996 49.9827L68.7302 70.7023L28.8455 50.166Z" fill="url(#paint2_linear_138_562)"/>
<defs>
<linearGradient id="paint0_linear_138_562" x1="41.5385" y1="60.7578" x2="52.9921" y2="81.4862" gradientUnits="userSpaceOnUse">
<stop stop-color="#9B03F8"/>
<stop offset="1" stop-color="#5B0292"/>
</linearGradient>
<linearGradient id="paint1_linear_138_562" x1="79.5694" y1="74.6721" x2="79.6115" y2="43.8724" gradientUnits="userSpaceOnUse">
<stop stop-color="#9B03F8"/>
<stop offset="1" stop-color="#5B0292"/>
</linearGradient>
<linearGradient id="paint2_linear_138_562" x1="50.4221" y1="36.0923" x2="40.4305" y2="56.2076" gradientUnits="userSpaceOnUse">
<stop stop-color="#9B03F8"/>
<stop offset="1" stop-color="#5B0292"/>
</linearGradient>
</defs>
</svg>
