<svg width="249" height="44" viewBox="0 0 249 44" fill="none" xmlns="http://www.w3.org/2000/svg">
<rect width="117" height="44" rx="10" fill="url(#paint0_linear_2_48)"/>
<path d="M23.864 25.392C26.248 25.392 27.44 24.424 27.44 22.488C27.44 21.544 26.856 20.744 25.688 20.088C25.16 19.784 24.576 19.496 23.936 19.224C23.312 18.952 22.68 18.656 22.04 18.336C21.4 18.016 20.816 17.672 20.288 17.304C19.776 16.936 19.352 16.472 19.016 15.912C18.696 15.352 18.536 14.72 18.536 14.016C18.536 12.864 19 11.888 19.928 11.088C20.872 10.272 22.16 9.864 23.792 9.864C25.424 9.864 27.144 10.36 28.952 11.352C28.952 12.264 28.84 13.408 28.616 14.784C28.264 14.832 27.8 14.856 27.224 14.856L26.504 12.072C26.312 11.976 25.928 11.88 25.352 11.784C24.792 11.688 24.296 11.64 23.864 11.64C22.936 11.64 22.216 11.84 21.704 12.24C21.192 12.624 20.936 13.168 20.936 13.872C20.936 14.56 21.232 15.184 21.824 15.744C22.432 16.288 23.16 16.76 24.008 17.16C24.872 17.544 25.728 17.944 26.576 18.36C27.44 18.776 28.168 19.32 28.76 19.992C29.368 20.648 29.672 21.416 29.672 22.296C29.672 23.896 29.136 25.136 28.064 26.016C26.992 26.88 25.592 27.312 23.864 27.312C22.92 27.312 21.896 27.168 20.792 26.88C19.704 26.576 18.8 26.192 18.08 25.728C18.112 24.656 18.232 23.416 18.44 22.008C18.792 21.96 19.256 21.936 19.832 21.936L20.336 24.816C20.688 24.96 21.216 25.096 21.92 25.224C22.64 25.336 23.288 25.392 23.864 25.392ZM35.9418 12.528C35.5258 12.624 35.1178 12.672 34.7178 12.672C34.3338 12.672 33.9498 12.648 33.5658 12.6C33.4698 12.152 33.4218 11.704 33.4218 11.256C33.4218 10.792 33.4378 10.448 33.4698 10.224C33.8218 10.144 34.1898 10.104 34.5738 10.104C34.9738 10.104 35.3978 10.12 35.8458 10.152C35.9418 10.568 35.9898 10.976 35.9898 11.376C35.9898 11.76 35.9738 12.144 35.9418 12.528ZM31.5738 15.048C32.9338 14.808 33.9898 14.688 34.7418 14.688C35.4938 14.688 35.9738 14.704 36.1818 14.736C36.1818 15.12 36.1338 15.544 36.0378 16.008C35.9418 16.472 35.8858 16.696 35.8698 16.68L35.6538 25.368L37.6698 25.56C37.6698 26.008 37.5338 26.488 37.2618 27H31.7418L31.6698 26.16C32.4058 25.904 33.1258 25.712 33.8298 25.584C33.7338 21.584 33.6538 18.584 33.5898 16.584C32.6618 16.584 31.9578 16.488 31.4778 16.296L31.5738 15.048ZM45.3406 25.536L47.4766 25.488C49.6846 25.488 50.7886 26.4 50.7886 28.224C50.7886 29.072 50.4206 29.856 49.6846 30.576C48.9646 31.312 48.1006 31.864 47.0926 32.232C46.0846 32.6 45.1406 32.784 44.2606 32.784C43.3966 32.784 42.5886 32.656 41.8366 32.4C41.0846 32.16 40.4446 31.76 39.9166 31.2C39.3886 30.64 39.1246 29.992 39.1246 29.256C39.1246 29.08 39.4046 28.616 39.9646 27.864C40.5406 27.128 40.9166 26.696 41.0926 26.568C40.9486 26.472 40.6686 26.2 40.2526 25.752C39.8366 25.288 39.6046 24.968 39.5566 24.792C39.9566 24.056 40.5886 23.336 41.4526 22.632C40.1726 21.864 39.5326 20.6 39.5326 18.84C39.5326 17.432 39.9806 16.36 40.8766 15.624C41.7726 14.888 42.8926 14.52 44.2366 14.52C45.5806 14.52 46.6206 14.736 47.3566 15.168C48.6366 14.912 49.8926 14.784 51.1246 14.784C51.4286 14.784 51.5806 14.968 51.5806 15.336C51.5806 15.976 51.4606 16.416 51.2206 16.656L48.4606 16.2C49.0366 16.936 49.3246 17.816 49.3246 18.84C49.3246 20.44 48.8526 21.592 47.9086 22.296C46.9646 22.984 45.8046 23.328 44.4286 23.328C43.9966 23.328 43.4846 23.272 42.8926 23.16C42.6526 23.656 42.3486 24.192 41.9806 24.768C42.2686 25.28 43.3886 25.536 45.3406 25.536ZM48.3886 29.952C48.5486 29.504 48.6286 29.04 48.6286 28.56C48.6286 28.096 48.4446 27.72 48.0766 27.432C47.7086 27.144 47.2366 27 46.6606 27C44.3726 27 42.9726 26.976 42.4606 26.928C42.0286 27.616 41.7246 28.192 41.5486 28.656C41.3886 29.136 41.3086 29.408 41.3086 29.472C41.3086 30.096 41.6046 30.56 42.1966 30.864C42.7886 31.168 43.4686 31.32 44.2366 31.32C45.0206 31.32 45.8046 31.192 46.5886 30.936C47.3886 30.68 47.9886 30.352 48.3886 29.952ZM47.1646 18.936C47.1646 16.952 46.2526 15.96 44.4286 15.96C42.6046 15.96 41.6926 16.92 41.6926 18.84C41.6926 19.816 41.9326 20.568 42.4126 21.096C42.8926 21.624 43.5886 21.888 44.5006 21.888C46.2766 21.888 47.1646 20.904 47.1646 18.936ZM60.3676 14.52C61.9036 14.52 63.0156 14.904 63.7036 15.672C64.3916 16.424 64.7356 17.576 64.7356 19.128C64.7356 19.576 64.6716 21.656 64.5436 25.368L66.5596 25.56C66.5596 26.008 66.4236 26.488 66.1516 27H60.6316L60.5596 26.16C61.2956 25.904 62.0156 25.712 62.7196 25.584C62.6236 21.392 62.5356 19.064 62.4556 18.6C62.3916 18.12 62.2796 17.704 62.1196 17.352C61.9596 17 61.7196 16.752 61.3996 16.608C61.0796 16.464 60.6556 16.392 60.1276 16.392C59.0716 16.392 58.0476 16.648 57.0556 17.16C56.9596 20.808 56.8956 23.544 56.8636 25.368L58.8796 25.56C58.8796 26.008 58.7436 26.488 58.4716 27H52.9516L52.8796 26.16C53.6156 25.904 54.3356 25.712 55.0396 25.584C54.9436 21.52 54.8636 18.512 54.7996 16.56C53.9196 16.512 53.2156 16.416 52.6876 16.272L52.7836 15.024C53.6476 14.784 54.9036 14.664 56.5516 14.664C56.7436 14.952 56.8876 15.368 56.9836 15.912C57.6716 15.544 58.3596 15.224 59.0476 14.952C59.7516 14.664 60.1916 14.52 60.3676 14.52ZM80.0951 25.416C80.5591 25.416 81.0791 25.32 81.6551 25.128C82.2311 24.92 82.7031 24.672 83.0711 24.384C83.0071 20.976 82.9511 18.392 82.9031 16.632C81.9111 16.632 81.1751 16.536 80.6951 16.344L80.7911 15.096C82.1511 14.856 83.2151 14.736 83.9831 14.736C84.7671 14.736 85.2631 14.752 85.4711 14.784C85.4711 15.072 85.4231 15.456 85.3271 15.936C85.2471 16.416 85.1911 16.68 85.1591 16.728L84.8711 25.296C85.7191 25.344 86.4071 25.44 86.9351 25.584L86.8871 26.808C86.1831 27.032 85.5031 27.144 84.8471 27.144C84.1911 27.144 83.7911 27.136 83.6471 27.12C83.3431 26.512 83.1671 25.952 83.1191 25.44C82.3351 26.032 81.6071 26.488 80.9351 26.808C80.2791 27.128 79.8471 27.288 79.6391 27.288C78.2311 27.288 77.2071 26.912 76.5671 26.16C75.9431 25.392 75.6311 24.272 75.6311 22.8C75.6311 22.784 75.7031 20.736 75.8471 16.656C74.9191 16.656 74.0631 16.552 73.2791 16.344L73.3751 15.096C74.7351 14.856 75.7911 14.736 76.5431 14.736C77.2951 14.736 77.7751 14.752 77.9831 14.784C77.9831 15.168 77.9351 15.592 77.8391 16.056C77.7431 16.52 77.6871 16.744 77.6711 16.728L77.6951 21.912C77.6951 23.128 77.8471 24.016 78.1511 24.576C78.4551 25.136 79.1031 25.416 80.0951 25.416ZM91.9445 25.776L91.8245 30.912L93.9125 31.08C93.9125 31.528 93.7765 32.008 93.5045 32.52H87.9365L87.8645 31.68C88.6005 31.44 89.3205 31.256 90.0245 31.128C89.9285 24.6 89.8485 19.744 89.7845 16.56C89.0645 16.544 88.3605 16.448 87.6725 16.272L87.7685 15.024C88.6965 14.784 89.9925 14.664 91.6565 14.664C91.8005 14.92 91.9365 15.392 92.0645 16.08C94.1125 15.04 95.4085 14.52 95.9525 14.52C97.4405 14.52 98.5445 15.104 99.2645 16.272C99.9845 17.424 100.345 18.928 100.345 20.784C100.345 22.624 99.9365 24.168 99.1205 25.416C98.3205 26.664 97.1525 27.288 95.6165 27.288C95.0405 27.288 94.4085 27.144 93.7205 26.856C93.0485 26.568 92.4565 26.208 91.9445 25.776ZM95.5205 16.32C94.5285 16.32 93.3765 16.672 92.0645 17.376C92.0325 20.352 92.0005 22.584 91.9685 24.072C92.3685 24.472 92.8965 24.84 93.5525 25.176C94.2245 25.496 94.8085 25.656 95.3045 25.656C97.1925 25.656 98.1365 24.104 98.1365 21C98.1365 19.816 98.0005 18.888 97.7285 18.216C97.4565 17.528 97.1445 17.04 96.7925 16.752C96.4405 16.464 96.0165 16.32 95.5205 16.32Z" fill="white"/>
<rect x="132" width="117" height="44" rx="10" fill="url(#paint1_linear_2_48)"/>
<path d="M168.176 25.232C168.224 25.328 168.288 25.696 168.368 26.336C168.464 26.976 168.512 27.52 168.512 27.968C168.512 28.4 168.488 28.744 168.44 29H157.04L156.968 28.16C157.72 27.888 158.4 27.704 159.008 27.608C158.912 21.304 158.832 16.656 158.768 13.664C158.352 13.6 157.648 13.408 156.656 13.088L156.776 12.2H162.56C162.832 12.648 162.968 13.12 162.968 13.616C162.104 13.648 161.48 13.672 161.096 13.688C161.064 16.76 161.032 19.56 161 22.088C160.984 24.6 160.968 26.368 160.952 27.392H166.208L166.784 25.112C167.584 25.112 168.048 25.152 168.176 25.232ZM175.611 27.848C176.955 27.848 177.859 27.432 178.323 26.6C178.803 25.752 179.043 24.552 179.043 23C179.043 20.536 178.499 18.992 177.411 18.368C176.963 18.112 176.331 17.984 175.515 17.984C174.715 17.984 173.955 18.152 173.235 18.488C172.595 19.72 172.275 21.152 172.275 22.784C172.275 24.352 172.483 25.56 172.899 26.408C173.379 27.368 174.283 27.848 175.611 27.848ZM170.067 23C170.067 20.968 170.531 19.384 171.459 18.248C172.387 17.096 173.819 16.52 175.755 16.52C177.691 16.52 179.091 17.048 179.955 18.104C180.819 19.144 181.251 20.688 181.251 22.736C181.251 24.784 180.787 26.392 179.859 27.56C178.947 28.728 177.555 29.312 175.683 29.312C173.811 29.312 172.403 28.768 171.459 27.68C170.531 26.592 170.067 25.032 170.067 23ZM189.317 27.536L191.453 27.488C193.661 27.488 194.765 28.4 194.765 30.224C194.765 31.072 194.397 31.856 193.661 32.576C192.941 33.312 192.077 33.864 191.069 34.232C190.061 34.6 189.117 34.784 188.237 34.784C187.373 34.784 186.565 34.656 185.813 34.4C185.061 34.16 184.421 33.76 183.893 33.2C183.365 32.64 183.101 31.992 183.101 31.256C183.101 31.08 183.381 30.616 183.941 29.864C184.517 29.128 184.893 28.696 185.069 28.568C184.925 28.472 184.645 28.2 184.229 27.752C183.813 27.288 183.581 26.968 183.533 26.792C183.933 26.056 184.565 25.336 185.429 24.632C184.149 23.864 183.509 22.6 183.509 20.84C183.509 19.432 183.957 18.36 184.853 17.624C185.749 16.888 186.869 16.52 188.213 16.52C189.557 16.52 190.597 16.736 191.333 17.168C192.613 16.912 193.869 16.784 195.101 16.784C195.405 16.784 195.557 16.968 195.557 17.336C195.557 17.976 195.437 18.416 195.197 18.656L192.437 18.2C193.013 18.936 193.301 19.816 193.301 20.84C193.301 22.44 192.829 23.592 191.885 24.296C190.941 24.984 189.781 25.328 188.405 25.328C187.973 25.328 187.461 25.272 186.869 25.16C186.629 25.656 186.325 26.192 185.957 26.768C186.245 27.28 187.365 27.536 189.317 27.536ZM192.365 31.952C192.525 31.504 192.605 31.04 192.605 30.56C192.605 30.096 192.421 29.72 192.053 29.432C191.685 29.144 191.213 29 190.637 29C188.349 29 186.949 28.976 186.437 28.928C186.005 29.616 185.701 30.192 185.525 30.656C185.365 31.136 185.285 31.408 185.285 31.472C185.285 32.096 185.581 32.56 186.173 32.864C186.765 33.168 187.445 33.32 188.213 33.32C188.997 33.32 189.781 33.192 190.565 32.936C191.365 32.68 191.965 32.352 192.365 31.952ZM191.141 20.936C191.141 18.952 190.229 17.96 188.405 17.96C186.581 17.96 185.669 18.92 185.669 20.84C185.669 21.816 185.909 22.568 186.389 23.096C186.869 23.624 187.565 23.888 188.477 23.888C190.253 23.888 191.141 22.904 191.141 20.936ZM207.411 14.528C206.995 14.624 206.587 14.672 206.187 14.672C205.803 14.672 205.419 14.648 205.035 14.6C204.939 14.152 204.891 13.704 204.891 13.256C204.891 12.792 204.907 12.448 204.939 12.224C205.291 12.144 205.659 12.104 206.043 12.104C206.443 12.104 206.867 12.12 207.315 12.152C207.411 12.568 207.459 12.976 207.459 13.376C207.459 13.76 207.443 14.144 207.411 14.528ZM203.043 17.048C204.403 16.808 205.459 16.688 206.211 16.688C206.963 16.688 207.443 16.704 207.651 16.736C207.651 17.12 207.603 17.544 207.507 18.008C207.411 18.472 207.355 18.696 207.339 18.68L207.123 27.368L209.139 27.56C209.139 28.008 209.003 28.488 208.731 29H203.211L203.139 28.16C203.875 27.904 204.595 27.712 205.299 27.584C205.203 23.584 205.123 20.584 205.059 18.584C204.131 18.584 203.427 18.488 202.947 18.296L203.043 17.048ZM217.961 16.52C219.497 16.52 220.609 16.904 221.297 17.672C221.985 18.424 222.329 19.576 222.329 21.128C222.329 21.576 222.265 23.656 222.137 27.368L224.153 27.56C224.153 28.008 224.017 28.488 223.745 29H218.225L218.153 28.16C218.889 27.904 219.609 27.712 220.313 27.584C220.217 23.392 220.129 21.064 220.049 20.6C219.985 20.12 219.873 19.704 219.713 19.352C219.553 19 219.313 18.752 218.993 18.608C218.673 18.464 218.249 18.392 217.721 18.392C216.665 18.392 215.641 18.648 214.649 19.16C214.553 22.808 214.489 25.544 214.457 27.368L216.473 27.56C216.473 28.008 216.337 28.488 216.065 29H210.545L210.473 28.16C211.209 27.904 211.929 27.712 212.633 27.584C212.537 23.52 212.457 20.512 212.393 18.56C211.513 18.512 210.809 18.416 210.281 18.272L210.377 17.024C211.241 16.784 212.497 16.664 214.145 16.664C214.337 16.952 214.481 17.368 214.577 17.912C215.265 17.544 215.953 17.224 216.641 16.952C217.345 16.664 217.785 16.52 217.961 16.52Z" fill="white"/>
<defs>
<linearGradient id="paint0_linear_2_48" x1="58.5" y1="0" x2="58.5" y2="44" gradientUnits="userSpaceOnUse">
<stop stop-color="#42166F"/>
<stop offset="1" stop-color="#260A37"/>
</linearGradient>
<linearGradient id="paint1_linear_2_48" x1="190.5" y1="0" x2="190.5" y2="44" gradientUnits="userSpaceOnUse">
<stop stop-color="#9B03F8"/>
<stop offset="1" stop-color="#42166F"/>
</linearGradient>
</defs>
</svg>
