<svg width="99" height="83" viewBox="0 0 99 83" fill="none" xmlns="http://www.w3.org/2000/svg">
<g clip-path="url(#clip0_7_209)">
<path d="M49.6755 59.7639C49.2249 60.0241 48.7645 60.1183 48.294 60.0466C47.8236 59.975 47.3871 59.7764 46.9847 59.451C45.3329 58.0019 43.5851 56.7583 41.7415 55.7203C39.9301 54.6637 37.5906 53.5472 34.7232 52.3709C31.8558 51.1945 29.3498 49.9382 27.2053 48.6019C25.093 47.247 23.2472 45.202 21.6679 42.4666C19.4941 38.7015 18.9581 34.7632 20.0598 30.6517C21.1751 26.4894 23.6152 23.3214 27.3803 21.1476C31.1454 18.9739 35.093 18.4539 39.2231 19.5878C43.3668 20.6709 46.5255 23.095 48.6993 26.8601C50.39 29.7885 51.2389 32.5593 51.2459 35.1726C51.2666 37.7351 51.1009 40.3837 50.749 43.1184C50.3489 46.4386 50.1443 49.1312 50.1351 51.1961C50.1394 53.2102 50.3443 55.2372 50.7498 57.2772C50.849 57.8206 50.7959 58.3233 50.5906 58.7851C50.3988 59.1961 50.0938 59.5224 49.6755 59.7639ZM37.9705 39.4904C39.3221 38.7101 40.1951 37.5839 40.5895 36.1118C40.9839 34.6398 40.791 33.228 40.0107 31.8765C39.2303 30.5249 38.1041 29.6519 36.6321 29.2575C35.1601 28.863 33.7483 29.056 32.3967 29.8363C31.0452 30.6166 30.1722 31.7428 29.7777 33.2148C29.3833 34.6869 29.5763 36.0987 30.3566 37.4502C31.1369 38.8018 32.2631 39.6748 33.7351 40.0692C35.2071 40.4637 36.6189 40.2707 37.9705 39.4904Z" fill="#E7E0EC"/>
</g>
<g clip-path="url(#clip1_7_209)">
<path d="M47.0784 59.7364C46.6234 59.4841 46.3055 59.138 46.1246 58.6978C45.9437 58.2577 45.8891 57.7813 45.9608 57.2688C46.3522 55.1065 46.5179 52.9679 46.4582 50.853C46.4309 48.7561 46.183 46.1758 45.7145 43.1121C45.246 40.0483 45.0322 37.2533 45.0731 34.7268C45.1465 32.2184 45.9489 29.5829 47.4801 26.8205C49.5878 23.018 52.6875 20.5302 56.7792 19.3569C60.9214 18.1691 64.8937 18.6291 68.6962 20.7369C72.4986 22.8446 74.9775 25.9606 76.1327 30.0847C77.3385 34.1944 76.8875 38.1505 74.7798 41.9529C73.1404 44.9104 71.2025 47.0651 68.9662 48.417C66.7803 49.7545 64.4247 50.9766 61.8993 52.0835C58.8473 53.4506 56.4339 54.662 54.6592 55.7176C52.935 56.7586 51.303 57.9783 49.7633 59.3765C49.3486 59.7414 48.8904 59.9548 48.3888 60.0166C47.9377 60.064 47.5009 59.9705 47.0784 59.7364ZM58.4277 39.2616C59.7927 40.0182 61.2076 40.1865 62.6726 39.7665C64.1375 39.3464 65.2483 38.4539 66.0049 37.0889C66.7615 35.7239 66.9298 34.309 66.5097 32.8441C66.0897 31.3791 65.1971 30.2684 63.8322 29.5118C62.4672 28.7551 61.0522 28.5869 59.5873 29.0069C58.1224 29.427 57.0116 30.3195 56.255 31.6845C55.4984 33.0495 55.3301 34.4644 55.7502 35.9293C56.1702 37.3942 57.0627 38.505 58.4277 39.2616Z" fill="#E7E0EC"/>
</g>
<ellipse cx="47.3357" cy="37.4477" rx="22.2951" ry="11.1476" transform="rotate(-2 47.3357 37.4477)" fill="#E0DCEA"/>
<defs>
<clipPath id="clip0_7_209">
<rect width="53.5083" height="53.5083" fill="white" transform="translate(1.98102 30.6631) rotate(-30)"/>
</clipPath>
<clipPath id="clip1_7_209">
<rect width="53.5083" height="53.5083" fill="white" transform="translate(47.4583 3.86621) rotate(29)"/>
</clipPath>
</defs>
</svg>
