<svg width="247" height="40" viewBox="0 0 247 40" fill="none" xmlns="http://www.w3.org/2000/svg">
<path d="M21.2926 19.4119C21.1316 18.8153 20.8949 18.2898 20.5824 17.8352C20.2699 17.3712 19.8864 16.9782 19.4318 16.6562C18.9773 16.3343 18.4564 16.0928 17.8693 15.9318C17.2822 15.7614 16.6383 15.6761 15.9375 15.6761C14.5265 15.6761 13.3049 16.017 12.2727 16.6989C11.25 17.3807 10.4593 18.375 9.90057 19.6818C9.34186 20.9792 9.0625 22.5559 9.0625 24.4119C9.0625 26.2775 9.33239 27.8684 9.87216 29.1847C10.4119 30.5009 11.1932 31.5047 12.2159 32.196C13.2386 32.8873 14.4792 33.233 15.9375 33.233C17.2254 33.233 18.3144 33.0246 19.2045 32.608C20.1042 32.1818 20.786 31.5805 21.25 30.804C21.714 30.0275 21.946 29.1136 21.946 28.0625L23.2528 28.2188H16.179V23.0909H28.7216V26.9403C28.7216 29.5445 28.1676 31.7746 27.0597 33.6307C25.9612 35.4867 24.446 36.9119 22.5142 37.9062C20.5919 38.9006 18.3807 39.3977 15.8807 39.3977C13.1061 39.3977 10.6676 38.7964 8.56534 37.5938C6.46307 36.3911 4.82481 34.6771 3.65057 32.4517C2.47633 30.2169 1.8892 27.5653 1.8892 24.4972C1.8892 22.1108 2.24432 19.9943 2.95455 18.1477C3.66477 16.2917 4.65436 14.7197 5.9233 13.4318C7.2017 12.1439 8.67898 11.1686 10.3551 10.5057C12.0407 9.8428 13.8542 9.51136 15.7955 9.51136C17.4811 9.51136 19.0483 9.75284 20.4972 10.2358C21.9555 10.7188 23.2434 11.4006 24.3608 12.2812C25.4877 13.1619 26.4015 14.2083 27.1023 15.4205C27.803 16.6326 28.2386 17.9631 28.4091 19.4119H21.2926ZM38.2599 39H30.7031L40.5185 9.90909H49.8793L59.6946 39H52.1378L45.3054 17.2386H45.0781L38.2599 39ZM37.2514 27.5511H53.0469V32.892H37.2514V27.5511ZM62.8267 9.90909H71.5341L78.9205 27.9205H79.2614L86.6477 9.90909H95.3551V39H88.5085V21.1307H88.267L81.2784 38.8153H76.9034L69.9148 21.0312H69.6733V39H62.8267V9.90909Z" fill="white"/>
<path d="M126.293 19.4119C126.132 18.8153 125.895 18.2898 125.582 17.8352C125.27 17.3712 124.886 16.9782 124.432 16.6562C123.977 16.3343 123.456 16.0928 122.869 15.9318C122.282 15.7614 121.638 15.6761 120.938 15.6761C119.527 15.6761 118.305 16.017 117.273 16.6989C116.25 17.3807 115.459 18.375 114.901 19.6818C114.342 20.9792 114.062 22.5559 114.062 24.4119C114.062 26.2775 114.332 27.8684 114.872 29.1847C115.412 30.5009 116.193 31.5047 117.216 32.196C118.239 32.8873 119.479 33.233 120.938 33.233C122.225 33.233 123.314 33.0246 124.205 32.608C125.104 32.1818 125.786 31.5805 126.25 30.804C126.714 30.0275 126.946 29.1136 126.946 28.0625L128.253 28.2188H121.179V23.0909H133.722V26.9403C133.722 29.5445 133.168 31.7746 132.06 33.6307C130.961 35.4867 129.446 36.9119 127.514 37.9062C125.592 38.9006 123.381 39.3977 120.881 39.3977C118.106 39.3977 115.668 38.7964 113.565 37.5938C111.463 36.3911 109.825 34.6771 108.651 32.4517C107.476 30.2169 106.889 27.5653 106.889 24.4972C106.889 22.1108 107.244 19.9943 107.955 18.1477C108.665 16.2917 109.654 14.7197 110.923 13.4318C112.202 12.1439 113.679 11.1686 115.355 10.5057C117.041 9.8428 118.854 9.51136 120.795 9.51136C122.481 9.51136 124.048 9.75284 125.497 10.2358C126.955 10.7188 128.243 11.4006 129.361 12.2812C130.488 13.1619 131.402 14.2083 132.102 15.4205C132.803 16.6326 133.239 17.9631 133.409 19.4119H126.293ZM143.26 39H135.703L145.518 9.90909H154.879L164.695 39H157.138L150.305 17.2386H150.078L143.26 39ZM142.251 27.5511H158.047V32.892H142.251V27.5511ZM167.827 9.90909H176.534L183.92 27.9205H184.261L191.648 9.90909H200.355V39H193.509V21.1307H193.267L186.278 38.8153H181.903L174.915 21.0312H174.673V39H167.827V9.90909ZM204.741 39V9.90909H225.025V15.6193H211.772V21.5852H223.988V27.3097H211.772V33.2898H225.025V39H204.741Z" fill="url(#paint0_linear_2_8)"/>
<defs>
<linearGradient id="paint0_linear_2_8" x1="175.556" y1="0" x2="175.556" y2="39" gradientUnits="userSpaceOnUse">
<stop stop-color="#E9CDFF"/>
<stop offset="1" stop-color="#9B03F8"/>
</linearGradient>
</defs>
</svg>
